<svg width="76" height="74" xmlns="http://www.w3.org/2000/svg" xmlns:xlink="http://www.w3.org/1999/xlink" xml:space="preserve" overflow="hidden"><g transform="translate(-188 -156)"><g><g><g><g><path d="M249.896 213.812 249.896 212.271 246.812 212.271 246.812 186.062 249.896 186.062 249.896 184.521 252.208 184.521 252.208 179.896 249.896 179.896 226 165.25 202.104 179.896 199.792 179.896 199.792 184.521 202.104 184.521 202.104 186.062 205.188 186.062 205.188 212.271 202.104 212.271 202.104 213.812 196.708 217.667 196.708 220.75 226 220.75 255.292 220.75 255.292 217.667 249.896 213.812ZM214.438 212.271 209.812 212.271 209.812 186.062 214.438 186.062 214.438 212.271ZM223.688 212.271 219.062 212.271 219.062 186.062 223.688 186.062 223.688 212.271ZM225.229 178.354C223.533 178.354 222.146 176.967 222.146 175.271 222.146 173.575 223.533 172.188 225.229 172.188 226.925 172.188 228.312 173.575 228.312 175.271 228.312 176.967 226.925 178.354 225.229 178.354ZM232.938 212.271 228.312 212.271 228.312 186.062 232.938 186.062 232.938 212.271ZM242.188 212.271 237.562 212.271 237.562 186.062 242.188 186.062 242.188 212.271Z" fill="#000000" fill-rule="nonzero" fill-opacity="1"/></g></g></g></g></g></svg>