<svg width="73" height="74" xmlns="http://www.w3.org/2000/svg" xmlns:xlink="http://www.w3.org/1999/xlink" xml:space="preserve" overflow="hidden"><g transform="translate(-352 -156)"><g><path d="M37.0323 47.7542C32.6979 42.8115 30.1125 34.3708 32.2417 25.3979 32.3177 25.2458 32.3177 25.0177 32.3937 24.8656 28.9719 21.824 24.4854 20.6833 19.999 21.7479 12.2427 23.5729 7.37604 31.3292 9.58125 40.7583 11.6344 49.4271 19.1625 57.7156 26.3865 57.4875L26.4625 57.7156 26.0063 62.5062 31.9375 61.1375 29.4281 57.0312 29.4281 56.9552C33.0021 55.5865 35.5875 52.0885 37.0323 47.7542Z" fill="#000000" fill-rule="nonzero" fill-opacity="1" transform="matrix(1 0 0 1.0137 352 156)"/><path d="M42.051 12.1667C38.5531 6.91979 32.6979 4.48646 26.8427 5.85521 20.5312 7.37604 16.1208 12.851 15.9688 19.9229 17.0333 19.3906 18.174 19.0104 19.3906 18.7823 20.6833 18.4781 21.976 18.326 23.3448 18.326 27.1469 18.326 30.6448 19.6187 33.5344 21.824 35.2833 17.4896 38.249 14.1438 42.051 12.1667Z" fill="#000000" fill-rule="nonzero" fill-opacity="1" transform="matrix(1 0 0 1.0137 352 156)"/><path d="M53.001 13.6875C45.2448 11.8625 37.4885 16.6531 35.2833 26.1583 33.1542 35.1313 36.576 46.2333 43.5719 48.8948L43.5719 48.9708 41.0625 53.0771 46.9938 54.4458 46.5375 49.6552 46.6135 49.4271C53.8375 49.5792 61.4417 41.3667 63.4188 32.6979 65.5479 23.2688 60.7573 15.5125 53.001 13.6875Z" fill="#000000" fill-rule="nonzero" fill-opacity="1" transform="matrix(1 0 0 1.0137 352 156)"/><path d="M42.051 67.449C43.0396 65.3958 44.3323 62.05 44.8646 57.7917 44.9406 56.9552 44.4083 56.1948 43.5719 56.1188 42.7354 55.9667 41.975 56.575 41.899 57.4115 41.2146 62.4302 39.4656 66.1562 38.7052 67.525L42.051 67.449Z" fill="#000000" fill-rule="nonzero" fill-opacity="1" transform="matrix(1 0 0 1.0137 352 156)"/><path d="M29.5042 67.449 32.774 67.449C32.1656 65.8521 31.9375 64.8635 31.9375 64.8635 31.7854 64.0271 30.949 63.4948 30.1125 63.7229 29.276 63.875 28.7437 64.7115 28.9719 65.5479 28.9719 65.624 29.124 66.3083 29.5042 67.449Z" fill="#000000" fill-rule="nonzero" fill-opacity="1" transform="matrix(1 0 0 1.0137 352 156)"/></g></g></svg>