<svg width="76" height="74" xmlns="http://www.w3.org/2000/svg" xmlns:xlink="http://www.w3.org/1999/xlink" xml:space="preserve" overflow="hidden"><g transform="translate(-672 -152)"><g><g><g><g><path d="M58.5521 26.4625C51.7083 19.0104 44.3323 24.1052 38.7052 25.3979 38.5531 23.5729 38.0969 21.9 37.5646 20.3031 39.9219 20.075 43.4198 19.3146 45.8531 16.8052 49.8073 12.851 49.4271 6.15938 49.4271 6.15938 49.4271 6.15938 42.6594 5.77917 38.7812 9.73333 36.9562 11.5583 36.0438 13.9917 35.5875 16.1208 32.2417 10.4938 27.375 7.52812 27.0708 7.3L24.7135 11.1781C24.7896 11.2542 33.0021 16.349 34.1427 25.3219 28.5917 23.9531 21.1396 19.0104 14.4479 26.3865 7.07188 34.5229 13.3833 76.1937 36.576 64.7115 59.6927 76.2698 65.9281 34.599 58.5521 26.4625Z" fill="#000000" fill-rule="nonzero" fill-opacity="1" transform="matrix(1.0137 0 0 1 673 153)"/></g></g></g></g></g></svg>