<svg width="74" height="74" xmlns="http://www.w3.org/2000/svg" xmlns:xlink="http://www.w3.org/1999/xlink" xml:space="preserve" overflow="hidden"><g transform="translate(-912 -156)"><g><g><g><g><path d="M9.88542 63.875 38.7812 63.875 38.7812 68.4375 9.88542 68.4375Z" fill="#000000" fill-rule="nonzero" fill-opacity="1" transform="matrix(1 0 0 1.0137 913 156)"/><path d="M38.0208 19.0104 35.7396 19.0104C35.7407 13.5894 31.9261 8.91649 26.6146 7.83229L26.6146 4.5625 22.0521 4.5625 22.0521 7.83229C16.7406 8.91649 12.9259 13.5894 12.9271 19.0104L10.6458 19.0104 10.6458 22.0521 38.0208 22.0521Z" fill="#000000" fill-rule="nonzero" fill-opacity="1" transform="matrix(1 0 0 1.0137 913 156)"/><path d="M9.88542 43.3438 9.88542 31.9375 4.5625 32.6979 4.5625 35.7396 1.52083 35.7396 1.52083 39.5417 4.5625 39.5417 4.5625 42.5833 9.88542 43.3438Z" fill="#000000" fill-rule="nonzero" fill-opacity="1" transform="matrix(1 0 0 1.0137 913 156)"/><path d="M35.7396 60.8333 35.7396 25.0938 12.9271 25.0938 12.9271 60.8333ZM24.3333 30.4167C28.1131 30.4167 31.1771 33.4807 31.1771 37.2604 31.1771 41.0401 28.1131 44.1042 24.3333 44.1042 20.5536 44.1042 17.4896 41.0401 17.4896 37.2604 17.4896 33.4807 20.5536 30.4167 24.3333 30.4167Z" fill="#000000" fill-rule="nonzero" fill-opacity="1" transform="matrix(1 0 0 1.0137 913 156)"/><path d="M25.5371 40.0785 27.1408 38.0672 26.5682 35.5586 24.2504 34.4423 21.9327 35.5586 21.3601 38.0672 22.9638 40.0785 25.5371 40.0785Z" fill="#000000" fill-rule="nonzero" fill-opacity="1" transform="matrix(1 0 0 1.0137 913 156)"/><path d="M44.1042 38.4459C49.3206 38.179 58.124 37.3425 65.3358 34.7199 66.1474 34.4184 66.8767 33.9302 67.4649 33.2948 69.1299 31.6167 69.1193 28.9066 67.4412 27.2415 67.2672 27.0689 67.0788 26.9116 66.8779 26.7712 64.7777 25.3226 61.9667 25.4629 60.0212 27.1134 54.8055 31.6387 48.3678 34.3868 44.1042 35.8536L44.1042 32.6979 38.7812 31.9375 38.7812 43.3438 44.1042 42.5833Z" fill="#000000" fill-rule="nonzero" fill-opacity="1" transform="matrix(1 0 0 1.0137 913 156)"/><path d="M61.1983 43.2723C55.6815 40.3401 48.1192 39.6474 46.1603 39.5097 45.8705 39.5039 45.6197 39.7101 45.5695 39.9956 45.5005 40.2619 45.6344 40.539 45.8858 40.6504 47.4774 41.2693 53.2292 43.7643 57.1073 48.8187 58.1171 50.1157 59.9871 50.3485 61.2841 49.3386 61.2944 49.3307 61.3046 49.3226 61.3147 49.3145 62.8377 48.1748 63.2871 46.0867 62.3679 44.4213 62.0892 43.9395 61.685 43.5424 61.1983 43.2723Z" fill="#000000" fill-rule="nonzero" fill-opacity="1" transform="matrix(1 0 0 1.0137 913 156)"/><path d="M70.3385 39.0094C68.1485 38.0458 65.7081 37.806 63.3724 38.325 62.9649 38.4269 62.7173 38.8398 62.8192 39.2472 62.8846 39.5084 63.0831 39.7155 63.3412 39.7918 65.0628 40.2702 66.6362 41.1743 67.9166 42.4206 68.7538 43.2198 70.0804 43.189 70.8796 42.3518 71.0331 42.191 71.16 42.0069 71.2556 41.8062 71.7775 40.7891 71.376 39.5415 70.3589 39.0197 70.3522 39.0162 70.3454 39.0128 70.3385 39.0094Z" fill="#000000" fill-rule="nonzero" fill-opacity="1" transform="matrix(1 0 0 1.0137 913 156)"/><path d="M44.0395 30.2212C45.5447 29.2584 47.268 28.6898 49.0507 28.5681 50.2046 28.4782 51.0672 27.4699 50.9773 26.316 50.96 26.0941 50.9075 25.8763 50.8217 25.6709 50.413 24.6028 49.2159 24.0683 48.1479 24.4769 48.1406 24.4797 48.1333 24.4825 48.126 24.4854 45.9468 25.4731 44.1398 27.1307 42.9681 29.2167 42.7702 29.5872 42.9102 30.0479 43.2806 30.2457 43.5199 30.3735 43.8091 30.3641 44.0395 30.2212Z" fill="#000000" fill-rule="nonzero" fill-opacity="1" transform="matrix(1 0 0 1.0137 913 156)"/><path d="M44.9475 45.0965C44.4929 44.8323 43.9102 44.9867 43.646 45.4414 43.471 45.7424 43.4744 46.1149 43.6548 46.4128 44.8166 48.3386 45.4753 50.5258 45.5703 52.7729 45.6455 54.2274 46.8855 55.3456 48.3401 55.2704 48.6202 55.2558 48.8963 55.1967 49.1579 55.0952 50.5145 54.6146 51.2246 53.1252 50.7439 51.7686 50.7407 51.7597 50.7375 51.7507 50.7342 51.7418 49.5619 48.9672 47.5346 46.6391 44.9475 45.0965Z" fill="#000000" fill-rule="nonzero" fill-opacity="1" transform="matrix(1 0 0 1.0137 913 156)"/></g></g></g></g></g></svg>